# xmcd
#
# Track frame offsets: 
#        150
#        16378
#        36124
#        52265
#        71628
#        84100
#        103281
#        129475
#        153360
#        182785
#        199238
#        218569
#        245276
#        262051
#
# Disc length: 3802 seconds
#
# Revision: 0
# Processed by: cddbd v1.5.2PL0 Copyright (c) Steve Scherf et al.
# Submitted via: ExactAudioCopy v0.95b4
#
DISCID=c60ed80e
DTITLE=Ox - Dust Bowl Revival
DYEAR=1900
DGENRE=Country
TTITLE0=Transam 
TTITLE1=La city
TTITLE2=Stolen car
TTITLE3=Carolinah 
TTITLE4=Weaving 
TTITLE5=Blue morning
TTITLE6=Stolen 
TTITLE7=Fat old sun
TTITLE8=North country girl
TTITLE9=She shot me down
TTITLE10=Promised land
TTITLE11=Oh Eileen
TTITLE12=Rodeo man
TTITLE13=Iowa
EXTD=
EXTT0=
EXTT1=
EXTT2=
EXTT3=
EXTT4=
EXTT5=
EXTT6=
EXTT7=
EXTT8=
EXTT9=
EXTT10=
EXTT11=
EXTT12=
EXTT13=
PLAYORDER=
